HIERARCHY
ROOT Hips
{
  OFFSET 126.96 91.9987 35.2002
  CHANNELS 6 Xposition Yposition Zposition Zrotation Xrotation Yrotation
  JOINT RightUpLeg
  {
    OFFSET -9.21262 -1.62705 0.0892923
    CHANNELS 3 Zrotation Xrotation Yrotation
    JOINT RightLeg
    {
      OFFSET 0.0960154 -41.8606 0.153467
      CHANNELS 3 Zrotation Xrotation Yrotation
      JOINT RightFoot
      {
        OFFSET 1.33859 -39.7491 3.70458
        CHANNELS 3 Zrotation Xrotation Yrotation
        End Site
        {
          OFFSET 0 -7.69 17.5
        }
      }
    }
  }
  JOINT LeftUpLeg
  {
    OFFSET 9.28909 -1.62806 0.0108209
    CHANNELS 3 Zrotation Xrotation Yrotation
    JOINT LeftLeg
    {
      OFFSET 0.0929201 -41.8886 0.0218006
      CHANNELS 3 Zrotation Xrotation Yrotation
      JOINT LeftFoot
      {
        OFFSET -1.57781 -41.3397 -3.31563
        CHANNELS 3 Zrotation Xrotation Yrotation
        End Site
        {
          OFFSET 0 -7.69 17.5
        }
      }
    }
  }
  JOINT Spine
  {
    OFFSET 0.0128959 14.3037 0.0259321
    CHANNELS 3 Zrotation Xrotation Yrotation
    JOINT Spine1
    {
      OFFSET 0.0143034 9.71252 0.015398
      CHANNELS 3 Zrotation Xrotation Yrotation
      JOINT Spine2
      {
        OFFSET 0.0468817 10.117 -0.0314137
        CHANNELS 3 Zrotation Xrotation Yrotation
        JOINT Spine3
        {
          OFFSET 0.0102655 9.71178 0.00221616
          CHANNELS 3 Zrotation Xrotation Yrotation
          JOINT Neck
          {
            OFFSET -0.0402596 10.3794 0.0231037
            CHANNELS 3 Zrotation Xrotation Yrotation
            JOINT Head
            {
              OFFSET -0.03453 9.49168 0.0708427
              CHANNELS 3 Zrotation Xrotation Yrotation
              End Site
              {
                OFFSET 0 15.95 0
              }
            }
          }
          JOINT RightShoulder
          {
            OFFSET -3.17991 6.93495 0.0309862
            CHANNELS 3 Zrotation Xrotation Yrotation
            JOINT RightArm
            {
              OFFSET -12.8253 0.0342167 0.035901
              CHANNELS 3 Zrotation Xrotation Yrotation
              JOINT RightForeArm
              {
                OFFSET -26.4423 -0.000685918 0.00421057
                CHANNELS 3 Zrotation Xrotation Yrotation
                JOINT RightHand
                {
                  OFFSET -25.9842 -0.0662606 -0.0268032
                  CHANNELS 3 Zrotation Xrotation Yrotation
                  JOINT RightHandThumb1
                  {
                    OFFSET -2.48905 0.190105 3.12053
                    CHANNELS 3 Zrotation Xrotation Yrotation
                    JOINT RightHandThumb2
                    {
                      OFFSET -3.68274 0 0
                      CHANNELS 3 Zrotation Xrotation Yrotation
                      JOINT RightHandThumb3
                      {
                        OFFSET -2.55832 0 0
                        CHANNELS 3 Zrotation Xrotation Yrotation
                        End Site
                        {
                          OFFSET -2.194 0 0
                        }
                      }
                    }
                  }
                  JOINT RightInHandIndex
                  {
                    OFFSET -3.22368 0.508421 1.97842
                    CHANNELS 3 Zrotation Xrotation Yrotation
                    JOINT RightHandIndex1
                    {
                      OFFSET -5.21684 -0.091368 0.999158
                      CHANNELS 3 Zrotation Xrotation Yrotation
                      JOINT RightHandIndex2
                      {
                        OFFSET -3.61937 0 0
                        CHANNELS 3 Zrotation Xrotation Yrotation
                        JOINT RightHandIndex3
                        {
                          OFFSET -2.0521 0 0
                          CHANNELS 3 Zrotation Xrotation Yrotation
                          End Site
                          {
                            OFFSET -1.805 0 0
                          }
                        }
                      }
                    }
                  }
                  JOINT RightInHandMiddle
                  {
                    OFFSET -3.38211 0.517263 0.756737
                    CHANNELS 3 Zrotation Xrotation Yrotation
                    JOINT RightHandMiddle1
                    {
                      OFFSET -5.17411 -0.084 0.313895
                      CHANNELS 3 Zrotation Xrotation Yrotation
                      JOINT RightHandMiddle2
                      {
                        OFFSET -3.94947 0 0
                        CHANNELS 3 Zrotation Xrotation Yrotation
                        JOINT RightHandMiddle3
                        {
                          OFFSET -2.47579 0 0
                          CHANNELS 3 Zrotation Xrotation Yrotation
                          End Site
                          {
                            OFFSET -1.975 0 0
                          }
                        }
                      }
                    }
                  }
                  JOINT RightInHandRing
                  {
                    OFFSET -3.36516 0.537895 -0.128947
                    CHANNELS 3 Zrotation Xrotation Yrotation
                    JOINT RightHandRing1
                    {
                      OFFSET -4.63474 -0.022105 -0.478947
                      CHANNELS 3 Zrotation Xrotation Yrotation
                      JOINT RightHandRing2
                      {
                        OFFSET -3.44238 0 0
                        CHANNELS 3 Zrotation Xrotation Yrotation
                        JOINT RightHandRing3
                        {
                          OFFSET -2.3881 0 0
                          CHANNELS 3 Zrotation Xrotation Yrotation
                          End Site
                          {
                            OFFSET -1.857 0 0
                          }
                        }
                      }
                    }
                  }
                  JOINT RightInHandPinky
                  {
                    OFFSET -3.16105 0.469368 -1.20179
                    CHANNELS 3 Zrotation Xrotation Yrotation
                    JOINT RightHandPinky1
                    {
                      OFFSET -4.14105 -0.022105 -1.09053
                      CHANNELS 3 Zrotation Xrotation Yrotation
                      JOINT RightHandPinky2
                      {
                        OFFSET -2.75653 0 0
                        CHANNELS 3 Zrotation Xrotation Yrotation
                        JOINT RightHandPinky3
                        {
                          OFFSET -1.74189 0 0
                          CHANNELS 3 Zrotation Xrotation Yrotation
                          End Site
                          {
                            OFFSET -1.645 0 0
                          }
                        }
                      }
                    }
                  }
                }
              }
            }
          }
          JOINT LeftShoulder
          {
            OFFSET 3.21113 6.90952 -0.0469957
            CHANNELS 3 Zrotation Xrotation Yrotation
            JOINT LeftArm
            {
              OFFSET 12.7919 -0.0331125 -0.0859637
              CHANNELS 3 Zrotation Xrotation Yrotation
              JOINT LeftForeArm
              {
                OFFSET 26.4755 -0.0026531 -0.0242133
                CHANNELS 3 Zrotation Xrotation Yrotation
                JOINT LeftHand
                {
                  OFFSET 25.9936 -0.03295 -0.105102
                  CHANNELS 3 Zrotation Xrotation Yrotation
                  JOINT LeftHandThumb1
                  {
                    OFFSET 2.48905 0.190105 3.12053
                    CHANNELS 3 Zrotation Xrotation Yrotation
                    JOINT LeftHandThumb2
                    {
                      OFFSET 3.68274 0 0
                      CHANNELS 3 Zrotation Xrotation Yrotation
                      JOINT LeftHandThumb3
                      {
                        OFFSET 2.55832 0 0
                        CHANNELS 3 Zrotation Xrotation Yrotation
                        End Site
                        {
                          OFFSET 2.194 0 0
                        }
                      }
                    }
                  }
                  JOINT LeftInHandIndex
                  {
                    OFFSET 3.22368 0.508421 1.97842
                    CHANNELS 3 Zrotation Xrotation Yrotation
                    JOINT LeftHandIndex1
                    {
                      OFFSET 5.21684 -0.091368 0.999158
                      CHANNELS 3 Zrotation Xrotation Yrotation
                      JOINT LeftHandIndex2
                      {
                        OFFSET 3.61937 0 0
                        CHANNELS 3 Zrotation Xrotation Yrotation
                        JOINT LeftHandIndex3
                        {
                          OFFSET 2.0521 0 0
                          CHANNELS 3 Zrotation Xrotation Yrotation
                          End Site
                          {
                            OFFSET 1.805 0 0
                          }
                        }
                      }
                    }
                  }
                  JOINT LeftInHandMiddle
                  {
                    OFFSET 3.38211 0.517263 0.756737
                    CHANNELS 3 Zrotation Xrotation Yrotation
                    JOINT LeftHandMiddle1
                    {
                      OFFSET 5.17411 -0.084 0.313895
                      CHANNELS 3 Zrotation Xrotation Yrotation
                      JOINT LeftHandMiddle2
                      {
                        OFFSET 3.94947 0 0
                        CHANNELS 3 Zrotation Xrotation Yrotation
                        JOINT LeftHandMiddle3
                        {
                          OFFSET 2.47579 0 0
                          CHANNELS 3 Zrotation Xrotation Yrotation
                          End Site
                          {
                            OFFSET 1.975 0 0
                          }
                        }
                      }
                    }
                  }
                  JOINT LeftInHandRing
                  {
                    OFFSET 3.36516 0.537895 -0.128947
                    CHANNELS 3 Zrotation Xrotation Yrotation
                    JOINT LeftHandRing1
                    {
                      OFFSET 4.63474 -0.022105 -0.478947
                      CHANNELS 3 Zrotation Xrotation Yrotation
                      JOINT LeftHandRing2
                      {
                        OFFSET 3.44238 0 0
                        CHANNELS 3 Zrotation Xrotation Yrotation
                        JOINT LeftHandRing3
                        {
                          OFFSET 2.3881 0 0
                          CHANNELS 3 Zrotation Xrotation Yrotation
                          End Site
                          {
                            OFFSET 1.857 0 0
                          }
                        }
                      }
                    }
                  }
                  JOINT LeftInHandPinky
                  {
                    OFFSET 3.16105 0.469368 -1.20179
                    CHANNELS 3 Zrotation Xrotation Yrotation
                    JOINT LeftHandPinky1
                    {
                      OFFSET 4.14105 -0.022105 -1.09053
                      CHANNELS 3 Zrotation Xrotation Yrotation
                      JOINT LeftHandPinky2
                      {
                        OFFSET 2.75653 0 0
                        CHANNELS 3 Zrotation Xrotation Yrotation
                        JOINT LeftHandPinky3
                        {
                          OFFSET 1.74189 0 0
                          CHANNELS 3 Zrotation Xrotation Yrotation
                          End Site
                          {
                            OFFSET 1.645 0 0
                          }
                        }
                      }
                    }
                  }
                }
              }
            }
          }
        }
      }
    }
  }
}
MOTION
Frames: 3
Frame Time: 0.00833333
2.401047000000000025e+03 8.919009999999998684e+01 2.946799999999999997e+01 3.226749999999999829e+01 -2.576229999999999976e+01 -1.365699999999999932e+02 6.803879999999999484e+00 -6.705510000000001014e+01 2.131540000000000035e+01 3.466179999999999595e+00 1.922380000000000067e+01 8.981400000000002493e+00 9.298599999999998644e+00 5.393500000000001293e+00 1.417690000000000339e+00 4.199880000000000280e+01 -4.891809999999999548e+01 5.074900000000000944e+01 8.715639999999957865e-02 1.901560000000000272e+01 1.246460000000000079e+01 -1.133209999999999873e+01 4.824709999999999610e+00 -3.959670000000000023e+00 -8.858549999999999258e+00 1.260420000000000051e+01 1.196909999999999741e+01 -1.965229999999999810e+00 3.761110000000000397e+00 2.734789999999999832e+00 -3.308840000000000447e+00 6.416909999999999670e+00 4.459559999999999746e+00 -5.101300000000003054e-02 -5.331439999999999513e-01 -3.959400000000001807e-01 -5.100399999999982725e-02 -5.316049999999998832e-01 -3.928530000000005629e-01 -1.444350000000000023e+00 -9.327420000000000044e+00 -6.759810000000001651e+00 2.944890000000000008e+00 -3.862960000000000171e+00 7.812889999999999446e+00 5.466989999999999839e+01 3.275470000000000326e+00 8.440760000000001639e+01 6.193639999999999368e+00 -4.112690000000000623e+01 -1.688389999999999702e+01 1.091929999999999801e+01 -2.468420000000000059e+01 6.104899999999999771e+00 2.818400000000000105e+01 1.072940000000000005e+01 1.915919999999999845e+01 1.614810000000000694e-15 0.000000000000000000e+00 -1.000000000000000000e+01 2.668799999999999506e-15 -3.180549999999999587e-15 -1.000000000000000000e+01 1.590280000000000274e-15 6.361109999999999741e-15 1.590279999999999880e-15 1.998179999999999978e+01 8.718970000000000331e-01 2.396399999999999864e+00 2.400000000000000000e+01 -1.590280000000000077e-15 -6.361110000000001319e-15 2.000000000000000000e+01 5.963539999999999870e-16 -6.361109999999998163e-15 1.590280000000000274e-15 6.361109999999999741e-15 1.590279999999999880e-15 2.000000000000000000e+01 -3.180549999999999587e-15 3.180549999999997615e-15 2.400000000000000000e+01 3.180550000000000771e-15 3.180549999999999982e-15 2.000000000000000000e+01 -1.913300000000000541e-15 0.000000000000000000e+00 1.590280000000000274e-15 6.361109999999999741e-15 1.590279999999999880e-15 1.997479999999999833e+01 -1.025649999999999951e+00 -2.819380000000000219e+00 2.400000000000000000e+01 2.385420000000000411e-15 0.000000000000000000e+00 2.000000000000000000e+01 -3.975690000000000513e-16 6.361109999999999741e-15 1.590280000000000274e-15 6.361109999999999741e-15 1.590279999999999880e-15 1.978150000000000119e+01 -3.009479999999999933e+00 -8.305149999999999366e+00 2.400000000000000000e+01 5.565969999999999999e-15 3.180549999999999982e-15 2.000000000000000000e+01 7.951389999999997254e-16 -3.180549999999999982e-15 -1.155300000000000082e+01 -1.244919999999999760e+01 -2.103460000000000107e+01 -2.127450000000003172e+00 3.980440000000000111e+01 -8.704430000000000689e+01 1.719590000000000032e+02 -6.220089999999999009e+01 1.607249999999999943e+02 -1.296660000000001034e+00 3.233710000000000662e+01 2.061469999999999203e+01 -2.818400000000000105e+01 1.072940000000000005e+01 -1.915919999999999845e+01 -1.137130000000000079e-14 9.541659999999998934e-15 1.000000000000000000e+01 -5.608179999999990877e-16 3.180550000000001560e-15 1.000000000000000000e+01 0.000000000000000000e+00 -3.180550000000000771e-15 -3.975690000000000513e-16 -1.998179999999999978e+01 8.718970000000000331e-01 -2.396399999999999864e+00 -2.400000000000000000e+01 -9.541660000000000512e-15 -1.272219999999999835e-14 -2.000000000000000000e+01 6.361109999999999741e-15 -3.180549999999999193e-15 0.000000000000000000e+00 -3.180550000000000771e-15 -3.975690000000000513e-16 -2.000000000000000000e+01 6.361109999999999741e-15 7.951389999999999226e-15 -2.400000000000000000e+01 -3.180550000000000771e-15 -3.180549999999998799e-15 -2.000000000000000000e+01 1.590280000000000274e-15 -6.361110000000000530e-15 0.000000000000000000e+00 -3.180550000000000771e-15 -3.975690000000000513e-16 -1.997479999999999833e+01 -1.025649999999999951e+00 2.819380000000000219e+00 -2.400000000000000000e+01 3.180550000000000771e-15 -9.541660000000000512e-15 -2.000000000000000000e+01 7.951389999999999226e-15 -1.590280000000000432e-14 0.000000000000000000e+00 -3.180550000000000771e-15 -3.975690000000000513e-16 -1.978150000000000119e+01 -3.009479999999999933e+00 8.305149999999999366e+00 -2.400000000000000000e+01 -6.361109999999999741e-15 -6.361110000000001319e-15 -2.000000000000000000e+01 6.361109999999998163e-15 3.180549999999999982e-15
2.401047000000000025e+03 8.918569999999999709e+01 2.946049999999999613e+01 3.223799999999999955e+01 -2.575989999999999824e+01 -1.366119999999999948e+02 6.888629999999999143e+00 -6.704140000000001010e+01 2.140500000000000469e+01 3.452290000000000525e+00 1.924490000000000123e+01 9.004510000000001568e+00 9.296309999999998297e+00 5.395289999999997477e+00 1.415719999999999423e+00 4.202759999999999252e+01 -4.886730000000000018e+01 5.077300000000000324e+01 6.615619999999999834e-02 1.904230000000000089e+01 1.248649999999999949e+01 -1.134570000000000256e+01 4.811650000000000205e+00 -3.974250000000000504e+00 -8.858259999999999579e+00 1.260360000000000014e+01 1.197039999999999971e+01 -1.965149999999999952e+00 3.760030000000000427e+00 2.734599999999999476e+00 -3.308900000000000396e+00 6.415949999999999598e+00 4.460110000000000241e+00 -5.265630000000004474e-02 -5.323940000000000339e-01 -3.956020000000000092e-01 -5.264939999999995734e-02 -5.308690000000000353e-01 -3.925090000000004409e-01 -1.464529999999999887e+00 -9.305759999999997589e+00 -6.738390000000000768e+00 2.955429999999999779e+00 -3.850400000000000489e+00 7.815210000000001322e+00 5.465030000000000143e+01 3.303789999999999338e+00 8.438890000000000668e+01 6.174860000000000682e+00 -4.116589999999999350e+01 -1.686319999999999908e+01 1.090440000000000076e+01 -2.468189999999999884e+01 6.098900000000000432e+00 2.818400000000000105e+01 1.072940000000000005e+01 1.915919999999999845e+01 -4.912070000000000950e-15 -9.541660000000000512e-15 -1.000000000000000000e+01 8.567220000000000400e-15 -6.361109999999999741e-15 -1.000000000000000000e+01 1.590279999999999880e-15 0.000000000000000000e+00 1.590280000000000668e-15 1.998179999999999978e+01 8.718970000000000331e-01 2.396399999999999864e+00 2.400000000000000000e+01 0.000000000000000000e+00 -1.590280000000000116e-14 2.000000000000000000e+01 1.391490000000000253e-15 3.180549999999999193e-15 1.590279999999999880e-15 0.000000000000000000e+00 1.590280000000000668e-15 2.000000000000000000e+01 -3.180549999999999982e-15 -6.361109999999999741e-15 2.400000000000000000e+01 -1.590279999999999880e-15 6.361109999999999741e-15 2.000000000000000000e+01 3.783119999999999832e-15 9.541660000000000512e-15 1.590279999999999880e-15 0.000000000000000000e+00 1.590280000000000668e-15 1.997479999999999833e+01 -1.025649999999999951e+00 -2.819380000000000219e+00 2.400000000000000000e+01 -2.385420000000000017e-15 1.272219999999999993e-14 2.000000000000000000e+01 -3.180549999999999982e-15 -6.361110000000000530e-15 1.590279999999999880e-15 0.000000000000000000e+00 1.590280000000000668e-15 1.978150000000000119e+01 -3.009479999999999933e+00 -8.305149999999999366e+00 2.400000000000000000e+01 -7.951389999999999226e-16 3.180550000000000771e-15 2.000000000000000000e+01 0.000000000000000000e+00 3.180549999999999982e-15 -1.156040000000000134e+01 -1.243619999999999770e+01 -2.102349999999999852e+01 -2.121510000000000673e+00 3.981689999999998975e+01 -8.705099999999998772e+01 1.718919999999999959e+02 -6.222580000000000666e+01 1.606430000000000291e+02 -1.272159999999999513e+00 3.239679999999999893e+01 2.057169999999999987e+01 -2.818400000000000105e+01 1.072940000000000005e+01 -1.915919999999999845e+01 1.881689999999999856e-14 3.180549999999999982e-15 1.000000000000000000e+01 -2.107980000000000778e-15 -6.361110000000001319e-15 1.000000000000000000e+01 7.951390000000000212e-16 -3.180549999999999982e-15 -3.180549999999999982e-15 -1.998179999999999978e+01 8.718970000000000331e-01 -2.396399999999999864e+00 -2.400000000000000000e+01 -9.541660000000000512e-15 -9.541660000000002090e-15 -2.000000000000000000e+01 3.180549999999999982e-15 3.180549999999999982e-15 7.951390000000000212e-16 -3.180549999999999982e-15 -3.180549999999999982e-15 -2.000000000000000000e+01 -3.180549999999999587e-15 -1.590279999999999485e-15 -2.400000000000000000e+01 -3.180549999999999193e-15 -1.272219999999999993e-14 -2.000000000000000000e+01 3.180549999999999982e-15 -6.361109999999998163e-15 7.951390000000000212e-16 -3.180549999999999982e-15 -3.180549999999999982e-15 -1.997479999999999833e+01 -1.025649999999999951e+00 2.819380000000000219e+00 -2.400000000000000000e+01 -3.180549999999999982e-15 -3.180550000000000771e-15 -2.000000000000000000e+01 1.590279999999999880e-15 -3.180550000000000771e-15 7.951390000000000212e-16 -3.180549999999999982e-15 -3.180549999999999982e-15 -1.978150000000000119e+01 -3.009479999999999933e+00 8.305149999999999366e+00 -2.400000000000000000e+01 0.000000000000000000e+00 -1.908329999999999831e-14 -2.000000000000000000e+01 -3.180550000000000771e-15 -3.180549999999999982e-15
2.401045999999999822e+03 8.918160000000001730e+01 2.945339999999999847e+01 3.217589999999999861e+01 -2.576160000000000139e+01 -1.367040000000000362e+02 7.024309999999999832e+00 -6.700020000000000664e+01 2.156549999999999656e+01 3.430600000000000538e+00 1.925580000000000069e+01 9.032000000000000028e+00 9.293710000000000804e+00 5.401109999999999189e+00 1.415160000000000196e+00 4.203379999999999939e+01 -4.879050000000000153e+01 5.082569999999999766e+01 6.207729999999989090e-02 1.907039999999999935e+01 1.248920000000000208e+01 -1.135910000000000153e+01 4.797069999999999723e+00 -3.986050000000000537e+00 -8.882999999999999119e+00 1.260159999999999947e+01 1.199849999999999994e+01 -1.965110000000000134e+00 3.758919999999999817e+00 2.734480000000000022e+00 -3.310000000000000053e+00 6.415119999999999933e+00 4.469519999999999271e+00 -5.449289999999995526e-02 -5.317270000000000607e-01 -3.952480000000000437e-01 -5.448830000000004503e-02 -5.302139999999999631e-01 -3.921480000000006072e-01 -1.493889999999999496e+00 -9.279120000000000701e+00 -6.715829999999999522e+00 2.973119999999999763e+00 -3.839229999999999698e+00 7.818509999999999849e+00 5.463970000000000482e+01 3.335910000000000597e+00 8.437250000000001648e+01 6.157560000000000144e+00 -4.121439999999999770e+01 -1.683460000000000178e+01 1.089419999999999966e+01 -2.470570000000000377e+01 6.115350000000000286e+00 2.818400000000000105e+01 1.072940000000000005e+01 1.915919999999999845e+01 6.526880000000001644e-15 9.541660000000000512e-15 -1.000000000000000000e+01 5.608179999999998766e-16 3.180549999999999982e-15 -1.000000000000000000e+01 -3.975689999999998936e-15 3.180550000000000376e-15 1.590280000000000274e-15 1.998179999999999978e+01 8.718970000000000331e-01 2.396399999999999864e+00 2.400000000000000000e+01 6.361109999999998952e-15 -1.908330000000000462e-14 2.000000000000000000e+01 2.186630000000000192e-15 9.541660000000000512e-15 -3.975689999999998936e-15 3.180550000000000376e-15 1.590280000000000274e-15 2.000000000000000000e+01 -3.180549999999999587e-15 -3.180550000000000771e-15 2.400000000000000000e+01 -6.361109999999999741e-15 1.590280000000000432e-14 2.000000000000000000e+01 -5.404459999999994737e-16 -3.180550000000000771e-15 -3.975689999999998936e-15 3.180550000000000376e-15 1.590280000000000274e-15 1.997479999999999833e+01 -1.025649999999999951e+00 -2.819380000000000219e+00 2.400000000000000000e+01 0.000000000000000000e+00 -9.541660000000000512e-15 2.000000000000000000e+01 5.168400000000000916e-15 1.272220000000000151e-14 -3.975689999999998936e-15 3.180550000000000376e-15 1.590280000000000274e-15 1.978150000000000119e+01 -3.009479999999999933e+00 -8.305149999999999366e+00 2.400000000000000000e+01 0.000000000000000000e+00 6.361109999999999741e-15 2.000000000000000000e+01 -3.180550000000000376e-15 3.180549999999999982e-15 -1.155930000000000035e+01 -1.242319999999999780e+01 -2.101590000000000202e+01 -2.116939999999999600e+00 3.983020000000000493e+01 -8.705760000000000787e+01 1.718049999999999784e+02 -6.226559999999999917e+01 1.605360000000000014e+02 -1.263030000000000541e+00 3.245519999999999072e+01 2.053750000000000142e+01 -2.818400000000000105e+01 1.072940000000000005e+01 -1.915919999999999845e+01 1.404010000000000346e-14 -6.361110000000000530e-15 1.000000000000000000e+01 1.682449999999999561e-15 -9.541660000000000512e-15 1.000000000000000000e+01 -1.590279999999999880e-15 0.000000000000000000e+00 2.782989999999999888e-15 -1.998179999999999978e+01 8.718970000000000331e-01 -2.396399999999999864e+00 -2.400000000000000000e+01 -6.361109999999999741e-15 2.862499999999999793e-14 -2.000000000000000000e+01 -3.180550000000000376e-15 1.272220000000000151e-14 -1.590279999999999880e-15 0.000000000000000000e+00 2.782989999999999888e-15 -2.000000000000000000e+01 3.180549999999999587e-15 1.113190000000000089e-14 -2.400000000000000000e+01 -3.180549999999999193e-15 1.272220000000000151e-14 -2.000000000000000000e+01 0.000000000000000000e+00 2.862499999999999162e-14 -1.590279999999999880e-15 0.000000000000000000e+00 2.782989999999999888e-15 -1.997479999999999833e+01 -1.025649999999999951e+00 2.819380000000000219e+00 -2.400000000000000000e+01 -6.361109999999999741e-15 1.272220000000000151e-14 -2.000000000000000000e+01 0.000000000000000000e+00 1.908330000000000462e-14 -1.590279999999999880e-15 0.000000000000000000e+00 2.782989999999999888e-15 -1.978150000000000119e+01 -3.009479999999999933e+00 8.305149999999999366e+00 -2.400000000000000000e+01 -6.361109999999999741e-15 1.908330000000000147e-14 -2.000000000000000000e+01 -7.951389999999999226e-15 1.908330000000000147e-14
